<svg height='100px' width='100px'  fill="#000000" xmlns="http://www.w3.org/2000/svg" xmlns:xlink="http://www.w3.org/1999/xlink" version="1.1" x="0px" y="0px" viewBox="0 0 100 100" style="enable-background:new 0 0 100 100;" xml:space="preserve"><g><path d="M11.09,48.63c0.67,0.94,1.97,1.15,2.91,0.48l34.79-24.93c0.73-0.52,1.7-0.52,2.43,0l34.79,24.93   c0.94,0.67,2.24,0.46,2.91-0.48l2.23-3.12c0.67-0.94,0.46-2.24-0.48-2.91l-10.8-7.73C79.32,34.48,79,33.85,79,33.18v-12.1   c0-1.15-0.93-2.08-2.08-2.08h-3.83C71.93,19,71,19.93,71,21.08v3.38c0,1.7-1.92,2.68-3.3,1.69L51.21,14.34   c-0.73-0.52-1.7-0.52-2.43,0L9.33,42.61c-0.94,0.67-1.15,1.97-0.48,2.91L11.09,48.63z"></path><path d="M81,83.23V50.75c0-1.25-0.61-2.41-1.64-3.11L52.13,29.01c-1.28-0.88-2.98-0.88-4.26,0L20.64,47.63   C19.61,48.34,19,49.5,19,50.75v32.48c0,2.08,1.69,3.77,3.77,3.77h15.46c2.08,0,3.77-1.69,3.77-3.77V82V68v-3.23   c0-2.08,1.69-3.77,3.77-3.77h8.46c2.08,0,3.77,1.69,3.77,3.77V68v14v1.23c0,2.08,1.69,3.77,3.77,3.77h15.46   C79.31,87,81,85.31,81,83.23z"></path></g></svg>